<?xml version="1.0" encoding="UTF-8" standalone="no"?>
<!-- Created with Inkscape (http://www.inkscape.org/) -->

<svg
   xmlns:dc="http://purl.org/dc/elements/1.1/"
   xmlns:cc="http://creativecommons.org/ns#"
   xmlns:rdf="http://www.w3.org/1999/02/22-rdf-syntax-ns#"
   xmlns:svg="http://www.w3.org/2000/svg"
   xmlns="http://www.w3.org/2000/svg"
   xmlns:sodipodi="http://sodipodi.sourceforge.net/DTD/sodipodi-0.dtd"
   xmlns:inkscape="http://www.inkscape.org/namespaces/inkscape"
   version="1.1"
   id="svg2"
   xml:space="preserve"
   width="133.7262"
   height="84.381332"
   viewBox="0 0 133.7262 84.38133"
   sodipodi:docname="plain_logo_rbg_bridge.svg"
   inkscape:version="0.92.1 r15371"><metadata
     id="metadata8"><rdf:RDF><cc:Work
         rdf:about=""><dc:format>image/svg+xml</dc:format><dc:type
           rdf:resource="http://purl.org/dc/dcmitype/StillImage" /><dc:title /></cc:Work></rdf:RDF></metadata><defs
     id="defs6"><clipPath
       clipPathUnits="userSpaceOnUse"
       id="clipPath22"><path
         d="m 1220,195 h 775.32 V 774.441 H 1220 Z"
         id="path20"
         inkscape:connector-curvature="0" /></clipPath></defs><sodipodi:namedview
     pagecolor="#ffffff"
     bordercolor="#666666"
     borderopacity="1"
     objecttolerance="10"
     gridtolerance="10"
     guidetolerance="10"
     inkscape:pageopacity="0"
     inkscape:pageshadow="2"
     inkscape:window-width="1920"
     inkscape:window-height="1054"
     id="namedview4"
     showgrid="false"
     inkscape:zoom="4.1944444"
     inkscape:cx="66.120343"
     inkscape:cy="75.719882"
     inkscape:window-x="1920"
     inkscape:window-y="0"
     inkscape:window-maximized="1"
     inkscape:current-layer="g12"
     fit-margin-top="0"
     fit-margin-left="0"
     fit-margin-right="0"
     fit-margin-bottom="0" /><g
     id="g10"
     inkscape:groupmode="layer"
     inkscape:label="ink_ext_XXXXXX"
     transform="matrix(1.3333333,0,0,-1.3333333,-21.548086,103.1782)"><g
       id="g12"
       transform="scale(0.1)"><path
         d="m 750.766,380.281 h 30 v 39.5078 h -30 z"
         style="fill:#f69b00;fill-opacity:1;fill-rule:nonzero;stroke:none"
         id="path34"
         inkscape:connector-curvature="0" /><path
         d="m 555.137,310.371 h 30 v 39.9102 h -30 z"
         style="fill:#f69b00;fill-opacity:1;fill-rule:nonzero;stroke:none"
         id="path36"
         inkscape:connector-curvature="0" /><path
         d="m 555.137,242.805 h 30 v 37.5664 h -30 z"
         style="fill:#f69b00;fill-opacity:1;fill-rule:nonzero;stroke:none"
         id="path38"
         inkscape:connector-curvature="0" /><path
         d="m 1131.76,659.125 -128.85,72.285 c 42.73,3.942 85.82,6.262 128.88,6.598 z m -0.19,-487.23 H 973.219 v 40.91 h -30 v -40.91 H 780.766 v 40.91 h -30 v -40.91 H 585.137 v 40.91 h -30 v -40.91 H 394.285 v 40.91 h -30 v -40.91 H 185.023 l 2.36,2.238 c 1.738,1.648 68.336,64.09 176.902,141.328 v -5.09 h 30 v 26.055 c 47.457,32.562 101.559,66.894 160.852,99.902 v -56.047 h 30 v 72.387 c 51.992,27.691 107.519,54.012 165.629,77.012 v -79.891 h 30 v 91.371 c 52.472,19.406 106.855,35.91 162.453,48.133 v -69.66 h 30 v 75.805 c 52.091,9.906 105.081,15.875 158.521,16.828 z M 192.055,471.809 352.914,343.988 C 278.152,291.23 222.246,244.805 192.055,218.555 Z m 172.23,98.675 V 373.27 L 203.516,501.016 c 27.933,13.394 84.351,39.41 160.769,69.468 z m 30,-13.613 148.278,-93.473 C 488.594,433.441 438.785,402.375 394.285,372.48 Z m 160.852,80.945 V 490.934 L 404.449,585.93 c 45.168,16.984 95.864,34.746 150.688,51.886 z m 30,-9.105 142.445,-76.238 c -49.613,-20.164 -97.285,-42.61 -142.445,-66.16 z m 165.629,61.918 V 574.094 l -146.7,78.508 c 46.653,13.609 95.813,26.539 146.7,38.027 z m 30,-8.512 L 916.27,613.77 C 870.066,602.68 824.766,588.801 780.766,572.895 Z m 162.453,42.738 v -91.082 l -136.34,68.77 c 44.516,8.848 90.133,16.445 136.34,22.312 z m 30,-11.187 129.051,-72.398 c -43.43,-2.2 -86.58,-7.516 -129.051,-15.379 z m 156.661,56.391 C 652.246,766.375 175.012,520.559 170.191,518.07 l -8.136,-4.183 0.133,-371.992 999.512,-0.204 0.1,628.25 -31.92,0.118"
         style="fill:#f69b00;fill-opacity:1;fill-rule:nonzero;stroke:none"
         id="path40"
         inkscape:connector-curvature="0" /><path
         d="m 943.219,242.805 h 30 v 37.5664 h -30 z"
         style="fill:#f69b00;fill-opacity:1;fill-rule:nonzero;stroke:none"
         id="path42"
         inkscape:connector-curvature="0" /><path
         d="m 750.766,242.805 h 30 v 37.5664 h -30 z"
         style="fill:#f69b00;fill-opacity:1;fill-rule:nonzero;stroke:none"
         id="path44"
         inkscape:connector-curvature="0" /><path
         d="m 364.285,242.805 h 30 v 37.5664 h -30 z"
         style="fill:#f69b00;fill-opacity:1;fill-rule:nonzero;stroke:none"
         id="path46"
         inkscape:connector-curvature="0" /><path
         d="m 750.766,310.371 h 30 v 39.9102 h -30 z"
         style="fill:#f69b00;fill-opacity:1;fill-rule:nonzero;stroke:none"
         id="path48"
         inkscape:connector-curvature="0" /><path
         d="m 943.219,310.371 h 30 v 39.9102 h -30 z"
         style="fill:#f69b00;fill-opacity:1;fill-rule:nonzero;stroke:none"
         id="path50"
         inkscape:connector-curvature="0" /><path
         d="m 943.219,380.281 h 30 v 39.5078 h -30 z"
         style="fill:#f69b00;fill-opacity:1;fill-rule:nonzero;stroke:none"
         id="path52"
         inkscape:connector-curvature="0" /><path
         d="m 943.219,449.789 h 30 v 39.8438 h -30 z"
         style="fill:#f69b00;fill-opacity:1;fill-rule:nonzero;stroke:none"
         id="path54"
         inkscape:connector-curvature="0" /></g></g></svg>